<?xml version="1.0" encoding="UTF-8" standalone="no"?>
<svg
   xmlns:dc="http://purl.org/dc/elements/1.1/"
   xmlns:cc="http://creativecommons.org/ns#"
   xmlns:rdf="http://www.w3.org/1999/02/22-rdf-syntax-ns#"
   xmlns:svg="http://www.w3.org/2000/svg"
   xmlns="http://www.w3.org/2000/svg"
   viewBox="0 0 501.99998 102"
   height="102"
   width="502"
   xml:space="preserve"
   version="1.1"
   id="svg2"><metadata
     id="metadata8"><rdf:RDF><cc:Work
         rdf:about=""><dc:format>image/svg+xml</dc:format><dc:type
           rdf:resource="http://purl.org/dc/dcmitype/StillImage" /><dc:title></dc:title></cc:Work></rdf:RDF></metadata><defs
     id="defs6"><clipPath
       id="clipPath16"
       clipPathUnits="userSpaceOnUse"><path
         id="path18"
         d="m 0,595.28 841.89,0 L 841.89,0 0,0 0,595.28 Z" /></clipPath></defs><g
     transform="matrix(1.25,0,0,-1.25,0,102.00003)"
     id="g10"><g
       transform="matrix(0.86179705,0,0,0.86179804,-161.96917,-215.70559)"
       id="g12"><g
         clip-path="url(#clipPath16)"
         id="g14"><g
           transform="translate(345.2799,303.5084)"
           id="g20"><path
             id="path22"
             style="fill:#c13832;fill-opacity:1;fill-rule:nonzero;stroke:none"
             d="M 0,0 C -0.049,0.784 -0.099,1.619 -0.147,2.502 -0.196,3.385 -0.232,4.231 -0.256,5.041 -0.282,5.85 -0.306,6.586 -0.33,7.248 -0.355,7.911 -0.367,8.438 -0.367,8.831 -0.562,7.996 -0.819,6.831 -1.136,5.335 -1.453,3.838 -1.857,2.281 -2.346,0.662 l -9.232,-32.232 -7.182,0 -8.426,30.834 c -0.244,0.834 -0.489,1.73 -0.733,2.686 -0.244,0.957 -0.463,1.877 -0.659,2.76 -0.195,0.883 -0.367,1.692 -0.513,2.428 -0.147,0.637 -0.245,1.178 -0.293,1.619 0,-0.393 -0.025,-0.956 -0.074,-1.692 0,-0.736 -0.025,-1.558 -0.073,-2.466 -0.048,-0.908 -0.109,-1.839 -0.183,-2.796 -0.074,-0.957 -0.135,-1.828 -0.183,-2.613 l -2.198,-30.76 -8.463,0 4.65,50.777 11.291,0 7.823,-28.847 c 0.589,-2.208 1.019,-4.011 1.291,-5.409 0.27,-1.398 0.479,-2.465 0.628,-3.201 0.097,0.784 0.294,1.937 0.589,3.459 0.345,1.569 0.764,3.237 1.256,5.004 l 8.044,28.994 11.292,0 4.501,-50.777 -8.463,0 L 0,0 Z" /></g><g
           transform="translate(379.7856,289.4529)"
           id="g24"><path
             id="path26"
             style="fill:#c13832;fill-opacity:1;fill-rule:nonzero;stroke:none"
             d="m 0,0 c -0.342,0.048 -0.659,0.073 -0.951,0.073 -1.999,0 -3.669,-0.147 -5.01,-0.441 -1.341,-0.294 -2.413,-0.736 -3.218,-1.325 -0.805,-0.588 -1.378,-1.324 -1.718,-2.207 -0.342,-0.883 -0.512,-1.914 -0.512,-3.091 0,-1.766 0.451,-3.165 1.352,-4.195 0.902,-1.03 2.158,-1.545 3.767,-1.545 1.268,0 2.486,0.355 3.657,1.067 1.171,0.711 2.17,1.656 2.999,2.833 L 0.513,0 0,0 Z m 4.439,-17.11 c -0.91,0.858 -1.586,1.877 -2.028,3.054 -1.526,-1.717 -3.1,-2.906 -4.722,-3.569 -1.624,-0.662 -3.468,-0.993 -5.533,-0.993 -4.28,0 -7.417,1.055 -9.408,3.164 -1.992,2.109 -2.987,4.783 -2.987,8.021 0,4.317 1.557,7.555 4.673,9.714 3.114,2.158 7.69,3.238 13.724,3.238 l 2.502,0 0,1.987 c 0,2.208 -0.307,3.851 -0.92,4.931 -0.614,1.078 -2.024,1.618 -4.231,1.618 -1.325,0 -2.649,-0.22 -3.974,-0.662 -1.325,-0.441 -2.515,-0.932 -3.569,-1.472 -1.056,-0.54 -1.926,-1.03 -2.613,-1.471 l -0.956,-0.663 -3.606,5.814 c 2.803,1.766 5.448,3.054 7.931,3.863 2.484,0.81 5.129,1.214 7.932,1.214 5.854,0 9.641,-2.06 11.364,-6.181 0.245,-0.638 0.405,-1.35 0.478,-2.134 0.074,-0.785 0.112,-1.939 0.112,-3.459 l 0,-3.532 -0.148,-10.67 c 0,-1.277 0.024,-2.344 0.074,-3.202 0.049,-0.859 0.184,-1.607 0.405,-2.244 0.221,-0.638 0.552,-1.203 0.993,-1.693 0.442,-0.491 1.03,-0.982 1.766,-1.472 L 7.502,-19.06 c -1.132,0.442 -2.153,1.093 -3.063,1.95" /></g><g
           transform="translate(412.5306,302.331)"
           id="g28"><path
             id="path30"
             style="fill:#c13832;fill-opacity:1;fill-rule:nonzero;stroke:none"
             d="m 0,0 c -0.344,0.098 -0.736,0.147 -1.177,0.147 -1.718,0 -3.214,-0.537 -4.489,-1.611 -1.277,-1.074 -2.11,-2.369 -2.502,-3.882 l 0,-25.046 -8.095,0 0,26.271 c 0,2.355 -0.123,4.329 -0.368,5.924 -0.246,1.593 -0.565,2.955 -0.957,4.084 l 7.433,1.913 c 0.931,-1.717 1.398,-3.679 1.398,-5.887 1.472,2.061 2.968,3.569 4.489,4.526 1.52,0.957 3.188,1.435 5.004,1.435 1.03,0 1.987,-0.2 2.87,-0.6 L 1.104,-0.368 C 0.711,-0.221 0.343,-0.099 0,0" /></g><g
           transform="translate(426.2178,292.9436)"
           id="g32"><path
             id="path34"
             style="fill:#c13832;fill-opacity:1;fill-rule:nonzero;stroke:none"
             d="m 0,0 11.038,16.158 9.788,0 -12.731,-15.717 15.748,-21.446 -9.787,0 L 0,0 Z m -8.684,22.339 c 0,1.814 -0.062,3.409 -0.183,4.783 -0.123,1.373 -0.332,2.771 -0.626,4.195 l 8.162,1.987 c 0.247,-1.178 0.432,-2.625 0.556,-4.342 0.124,-1.718 0.186,-3.558 0.186,-5.519 l 0,-44.448 -8.095,0 0,43.344 z" /></g><g
           transform="translate(468.6222,301.3191)"
           id="g36"><path
             id="path38"
             style="fill:#c13832;fill-opacity:1;fill-rule:nonzero;stroke:none"
             d="m 0,0 c -1.215,1.656 -2.864,2.484 -4.945,2.484 -2.381,0 -4.166,-0.828 -5.356,-2.484 -1.19,-1.656 -1.785,-4.016 -1.785,-7.083 l 13.909,0 C 1.823,-4.016 1.214,-1.656 0,0 m -12.086,-13.555 c 0,-1.267 0.136,-2.535 0.407,-3.802 0.272,-1.267 0.765,-2.401 1.481,-3.4 0.715,-0.999 1.666,-1.803 2.851,-2.412 1.184,-0.609 2.69,-0.913 4.516,-0.913 3.307,0 6.417,1.226 9.33,3.679 l 3.164,-4.945 c -3.878,-3.326 -8.348,-4.989 -13.408,-4.989 -2.654,0 -5.036,0.454 -7.148,1.361 -2.114,0.907 -3.906,2.208 -5.381,3.9 -1.474,1.693 -2.617,3.741 -3.427,6.145 -0.811,2.403 -1.216,5.102 -1.216,8.095 0,3.286 0.368,6.071 1.107,8.352 0.738,2.282 1.918,4.354 3.541,6.219 1.524,1.716 3.22,2.98 5.089,3.79 1.869,0.809 3.983,1.214 6.344,1.214 1.868,0 3.651,-0.283 5.348,-0.846 C 2.208,7.328 3.843,6.334 5.417,4.912 7.039,3.44 8.256,1.453 9.068,-1.049 c 0.811,-2.502 1.217,-5.912 1.217,-10.229 l 0,-1.692 -22.371,0 0,-0.585 z" /></g><g
           transform="translate(493.7139,270.982)"
           id="g40"><path
             id="path42"
             style="fill:#c13832;fill-opacity:1;fill-rule:nonzero;stroke:none"
             d="m 0,0 c -1.833,0 -3.368,0.245 -4.605,0.734 -1.237,0.489 -2.24,1.175 -3.008,2.055 -0.768,0.881 -1.325,1.898 -1.671,3.047 -0.347,1.15 -0.52,2.386 -0.52,3.709 l 0,22.981 -4.12,0 0,5.593 4.12,0 c 0,1.58 0.012,3.16 0.037,4.74 0.026,1.58 0.138,3.087 0.338,4.52 l 8.456,1.999 c -0.196,-1.531 -0.356,-3.322 -0.478,-5.37 -0.123,-2.049 -0.184,-4.012 -0.184,-5.889 l 8.904,0 -2.134,-5.593 -6.844,0 0,-20.728 c 0,-2.287 0.319,-3.843 0.957,-4.67 0.637,-0.828 1.84,-1.241 3.606,-1.241 1.03,0 2.182,0.245 3.458,0.736 L 7.343,1.66 C 5.022,0.554 2.574,0 0,0" /></g><g
           transform="translate(525.6271,300.0578)"
           id="g44"><path
             id="path46"
             style="fill:#c13832;fill-opacity:1;fill-rule:nonzero;stroke:none"
             d="m 0,0 c -0.986,2.202 -2.81,3.304 -5.472,3.304 -3.008,0 -5.646,-1.287 -7.913,-3.861 l 0,-18.703 c 0.985,-0.99 2.082,-1.793 3.291,-2.412 1.207,-0.619 2.428,-0.928 3.661,-0.928 2.81,0 4.831,1.038 6.064,3.117 1.233,2.078 1.849,5.369 1.849,9.872 C 1.48,-5.405 0.987,-2.202 0,0 m 9.308,-17.044 c -0.669,-2.478 -1.635,-4.599 -2.898,-6.365 -1.262,-1.767 -2.822,-3.117 -4.679,-4.048 -1.858,-0.931 -3.974,-1.398 -6.351,-1.398 -3.318,0 -6.288,1.005 -8.912,3.017 l 0.073,-1.104 c 0.048,-0.687 0.074,-1.545 0.074,-2.575 l 0,-12.437 -7.727,-1.987 0,43.418 c 0,1.128 -0.013,2.121 -0.037,2.98 -0.025,0.858 -0.062,1.643 -0.11,2.355 -0.05,0.711 -0.123,1.373 -0.221,1.987 -0.099,0.613 -0.221,1.262 -0.368,1.95 l 7.464,1.325 c 0.197,-0.638 0.333,-1.277 0.407,-1.914 0.073,-0.638 0.135,-1.521 0.185,-2.649 1.182,1.422 2.648,2.514 4.398,3.275 1.75,0.76 3.61,1.141 5.582,1.141 1.873,0 3.66,-0.369 5.361,-1.104 C 3.25,8.087 4.754,6.97 6.06,5.474 7.366,3.977 8.401,2.053 9.164,-0.302 c 0.764,-2.355 1.147,-5.152 1.147,-8.39 0,-3.09 -0.335,-5.875 -1.003,-8.352" /></g><g
           transform="translate(564.0491,272.7112)"
           id="g48"><path
             id="path50"
             style="fill:#c13832;fill-opacity:1;fill-rule:nonzero;stroke:none"
             d="m 0,0 c -0.491,0.711 -0.909,1.606 -1.251,2.686 -2.748,-3.042 -6.28,-4.563 -10.597,-4.563 -2.11,0 -3.95,0.332 -5.519,0.994 -1.571,0.662 -2.822,1.557 -3.753,2.686 -0.736,0.883 -1.264,1.987 -1.583,3.311 -0.319,1.325 -0.478,3.165 -0.478,5.52 l 0,25.241 8.095,1.472 0,-24.947 c 0,-1.177 0.06,-2.257 0.182,-3.238 0.12,-0.982 0.363,-1.828 0.727,-2.539 0.363,-0.712 0.909,-1.264 1.637,-1.656 0.726,-0.393 1.673,-0.588 2.837,-0.588 1.357,0 2.739,0.478 4.146,1.435 1.406,0.956 2.425,2.097 3.055,3.422 l 0,26.639 7.8,1.472 0,-28.038 C 5.298,7.494 5.494,6.022 5.887,4.894 6.279,3.765 6.647,2.98 6.991,2.539 7.285,2.146 7.457,1.925 7.506,1.877 L 1.987,-1.95 C 1.152,-1.361 0.49,-0.712 0,0" /></g><g
           transform="translate(585.1693,271.129)"
           id="g52"><path
             id="path54"
             style="fill:#c13832;fill-opacity:1;fill-rule:nonzero;stroke:none"
             d="M 0,0 C -2.06,0 -3.642,0.405 -4.746,1.214 -5.85,2.024 -6.66,2.98 -7.175,4.084 -7.69,5.188 -7.984,6.34 -8.058,7.543 c -0.073,1.202 -0.11,2.195 -0.11,2.98 l 0,31.717 c 0,1.275 -0.013,2.404 -0.037,3.386 -0.025,0.98 -0.062,1.9 -0.11,2.759 -0.05,0.858 -0.124,1.667 -0.221,2.428 -0.099,0.76 -0.221,1.533 -0.368,2.319 l 8.18,1.839 c 0.288,-1.129 0.469,-2.49 0.541,-4.084 0.073,-1.595 0.11,-3.643 0.11,-6.145 l 0,-31.57 c 0,-1.276 0.012,-2.293 0.037,-3.053 C -0.01,9.357 0.04,8.732 0.116,8.242 0.192,7.751 0.281,7.383 0.382,7.138 0.483,6.892 0.61,6.671 0.761,6.476 1.014,6.132 1.405,5.887 1.936,5.74 2.468,5.593 2.986,5.641 3.492,5.887 L 4.857,0.883 C 3.385,0.294 1.766,0 0,0" /></g><g
           transform="translate(617.9142,278.4145)"
           id="g56"><path
             id="path58"
             style="fill:#c13832;fill-opacity:1;fill-rule:nonzero;stroke:none"
             d="m 0,0 c -0.738,-1.571 -1.77,-2.907 -3.096,-4.011 -1.327,-1.103 -2.913,-1.963 -4.756,-2.575 -1.843,-0.613 -3.896,-0.92 -6.156,-0.92 -2.36,0 -4.732,0.356 -7.116,1.067 -2.384,0.71 -4.778,1.729 -7.183,3.054 l 2.87,5.813 c 1.665,-0.982 3.564,-1.876 5.695,-2.686 2.132,-0.809 4.251,-1.214 6.359,-1.214 1.764,0 3.209,0.478 4.336,1.435 1.127,0.957 1.69,2.219 1.69,3.79 0,1.422 -0.478,2.539 -1.434,3.348 -0.957,0.81 -2.491,1.435 -4.6,1.877 l -4.489,0.957 c -2.796,0.588 -4.98,1.777 -6.549,3.569 -1.571,1.79 -2.355,4.01 -2.355,6.659 0,1.767 0.331,3.373 0.994,4.821 0.664,1.446 1.61,2.686 2.838,3.716 1.228,1.03 2.69,1.84 4.384,2.428 1.695,0.589 3.575,0.883 5.639,0.883 2.555,0 4.851,-0.339 6.891,-1.017 2.039,-0.679 3.843,-1.446 5.414,-2.299 l -2.65,-5.662 c -1.703,0.932 -3.274,1.619 -4.71,2.061 -1.438,0.441 -2.885,0.662 -4.346,0.662 -1.704,0 -3.067,-0.434 -4.09,-1.304 -1.023,-0.869 -1.533,-2.003 -1.533,-3.402 0,-1.111 0.365,-1.993 1.099,-2.644 0.733,-0.651 2.028,-1.218 3.885,-1.701 l 4.619,-1.178 c 1.856,-0.491 3.395,-1.104 4.618,-1.839 1.221,-0.736 2.187,-1.558 2.895,-2.466 C -0.129,10.314 0.372,9.346 0.666,8.316 0.959,7.285 1.106,6.23 1.106,5.151 1.106,3.286 0.737,1.57 0,0" /></g><g
           transform="translate(642.7332,301.3191)"
           id="g60"><path
             id="path62"
             style="fill:#c13832;fill-opacity:1;fill-rule:nonzero;stroke:none"
             d="m 0,0 c -1.215,1.656 -2.864,2.484 -4.945,2.484 -2.38,0 -4.166,-0.828 -5.356,-2.484 -1.19,-1.656 -1.785,-4.016 -1.785,-7.083 l 13.909,0 C 1.823,-4.016 1.214,-1.656 0,0 m -12.086,-13.555 c 0,-1.267 0.136,-2.535 0.407,-3.802 0.272,-1.267 0.765,-2.401 1.481,-3.4 0.715,-0.999 1.666,-1.803 2.851,-2.412 1.184,-0.609 2.69,-0.913 4.516,-0.913 3.307,0 6.417,1.226 9.33,3.679 l 3.164,-4.945 c -3.878,-3.326 -8.347,-4.989 -13.408,-4.989 -2.654,0 -5.036,0.454 -7.148,1.361 -2.114,0.907 -3.906,2.208 -5.381,3.9 -1.474,1.693 -2.617,3.741 -3.427,6.145 -0.811,2.403 -1.216,5.102 -1.216,8.095 0,3.286 0.368,6.071 1.107,8.352 0.738,2.282 1.918,4.354 3.541,6.219 1.524,1.716 3.22,2.98 5.089,3.79 1.869,0.809 3.983,1.214 6.344,1.214 1.868,0 3.651,-0.283 5.348,-0.846 C 2.208,7.328 3.843,6.334 5.417,4.912 7.039,3.44 8.256,1.453 9.068,-1.049 9.88,-3.551 10.285,-6.961 10.285,-11.278 l 0,-1.692 -22.371,0 0,-0.585 z" /></g><g
           transform="translate(220.0018,322.1106)"
           id="g64"><path
             id="path66"
             style="fill:#c13832;fill-opacity:1;fill-rule:nonzero;stroke:none"
             d="M 0,0 C 0.708,1.596 2.318,2.601 4.065,2.517 5.81,2.44 7.328,1.301 7.891,-0.351 l 11.764,-34.507 7.417,19.036 c 0.598,1.536 2.031,2.585 3.675,2.693 1.642,0.107 3.202,-0.747 3.994,-2.192 l 3.963,-7.219 24.09,0 C 61.78,2.527 41.148,22.54 15.832,22.54 -9.484,22.54 -30.117,2.527 -31.13,-22.54 l 21.131,0 L 0,0 Z" /></g><g
           transform="translate(252.4779,293.2885)"
           id="g68"><path
             id="path70"
             style="fill:#c13832;fill-opacity:1;fill-rule:nonzero;stroke:none"
             d="M 0,0 -0.799,1.456 -9.135,-19.94 c -0.636,-1.631 -2.207,-2.701 -3.951,-2.701 -0.031,0 -0.061,0 -0.092,10e-4 -1.781,0.038 -3.348,1.185 -3.923,2.871 L -29.117,15.477 -35.839,0.321 c -0.681,-1.533 -2.2,-2.522 -3.877,-2.522 l -23.475,0 c 3.19,-22.86 22.808,-40.458 46.547,-40.458 23.738,0 43.357,17.598 46.546,40.458 l -26.184,0 C 2.17,-2.201 0.745,-1.357 0,0" /></g><g
           transform="translate(283.0258,300.1652)"
           id="g72"><path
             id="path74"
             style="fill:#c13832;fill-opacity:1;fill-rule:nonzero;stroke:none"
             d="m 0,0 0,-0.595 0.025,0 L 0,0 Z" /></g></g></g></g></svg>